<svg width="163" height="48" viewBox="0 0 163 48" fill="none" xmlns="http://www.w3.org/2000/svg">
<rect width="163" height="48" rx="24" fill="#10B981"/>
<path d="M24.3844 14.4791C24.9095 14.3208 25.473 14.3471 25.981 14.5537C26.4891 14.7602 26.9111 15.1345 27.1768 15.6143L27.2668 15.7931L28.06 17.5583C28.3011 18.0941 28.3793 18.6889 28.285 19.2688C28.1907 19.8488 27.928 20.3881 27.5296 20.8199L27.3712 20.9783L26.1184 22.1459C25.8928 22.3595 26.062 23.1863 26.8792 24.5999C27.6124 25.8719 28.2112 26.4659 28.504 26.4983H28.5556L28.6192 26.4863L31.0792 25.7339C31.4098 25.6325 31.7626 25.6285 32.0955 25.7224C32.4283 25.8162 32.727 26.004 32.956 26.2631L33.0664 26.4011L34.6936 28.6571C35.0129 29.0992 35.1721 29.6368 35.1451 30.1814C35.118 30.7261 34.9063 31.2453 34.5448 31.6535L34.3984 31.8047L33.7468 32.4215C33.1627 32.9746 32.4322 33.3484 31.6419 33.4984C30.8516 33.6483 30.0349 33.5682 29.2888 33.2675C26.9668 32.3315 24.8572 30.1931 22.9408 26.8739C21.0208 23.5463 20.2228 20.6459 20.5792 18.1619C20.6871 17.4109 20.9965 16.7032 21.4745 16.1139C21.9524 15.5246 22.581 15.0758 23.2936 14.8151L23.5252 14.7383L24.3844 14.4791Z" fill="white"/>
<path d="M61.544 29.14C60.592 29.14 59.7427 28.9253 58.996 28.496C58.2587 28.0667 57.68 27.474 57.26 26.718C56.84 25.9527 56.63 25.0707 56.63 24.072C56.63 23.3627 56.756 22.7047 57.008 22.098C57.2693 21.482 57.624 20.9453 58.072 20.488C58.5293 20.0307 59.0613 19.676 59.668 19.424C60.284 19.172 60.9467 19.046 61.656 19.046C62.356 19.046 63.028 19.1953 63.672 19.494C64.3253 19.7833 64.848 20.1753 65.24 20.67L63.966 22.084C63.63 21.7293 63.2707 21.454 62.888 21.258C62.5053 21.062 62.09 20.964 61.642 20.964C61.0913 20.964 60.592 21.0947 60.144 21.356C59.7053 21.6173 59.3553 21.986 59.094 22.462C58.8327 22.9287 58.702 23.47 58.702 24.086C58.702 24.7207 58.828 25.276 59.08 25.752C59.3413 26.2187 59.7053 26.5827 60.172 26.844C60.648 27.096 61.194 27.222 61.81 27.222C62.2673 27.222 62.6967 27.1287 63.098 26.942C63.4993 26.7553 63.8447 26.5127 64.134 26.214L65.114 27.796C64.89 28.048 64.5867 28.2767 64.204 28.482C63.8213 28.6873 63.3967 28.8507 62.93 28.972C62.4727 29.084 62.0107 29.14 61.544 29.14ZM70.0627 29.14C69.3067 29.14 68.6347 28.9767 68.0467 28.65C67.4587 28.314 66.9967 27.8567 66.6607 27.278C66.3247 26.6993 66.1567 26.0367 66.1567 25.29C66.1567 24.5527 66.3247 23.8947 66.6607 23.316C66.9967 22.7373 67.4587 22.2847 68.0467 21.958C68.6347 21.622 69.3067 21.454 70.0627 21.454C70.8 21.454 71.4627 21.622 72.0507 21.958C72.6387 22.2847 73.1007 22.7373 73.4367 23.316C73.7727 23.8947 73.9407 24.5527 73.9407 25.29C73.9407 26.0367 73.7727 26.6993 73.4367 27.278C73.1007 27.8567 72.6387 28.314 72.0507 28.65C71.4627 28.9767 70.8 29.14 70.0627 29.14ZM70.0627 27.474C70.436 27.474 70.772 27.3807 71.0707 27.194C71.3693 26.998 71.598 26.7367 71.7567 26.41C71.9247 26.0833 72.0087 25.71 72.0087 25.29C72.0087 24.87 71.9247 24.4967 71.7567 24.17C71.598 23.8433 71.3693 23.5867 71.0707 23.4C70.772 23.2133 70.436 23.12 70.0627 23.12C69.68 23.12 69.3393 23.2133 69.0407 23.4C68.742 23.5867 68.5087 23.8433 68.3407 24.17C68.1727 24.4967 68.0887 24.87 68.0887 25.29C68.0887 25.71 68.1727 26.0833 68.3407 26.41C68.5087 26.7367 68.742 26.998 69.0407 27.194C69.3393 27.3807 69.68 27.474 70.0627 27.474ZM75.451 29V21.608H77.299L77.327 22.602C77.579 22.266 77.915 21.9907 78.335 21.776C78.755 21.5613 79.1937 21.454 79.651 21.454C81.3497 21.454 82.199 22.462 82.199 24.478V29H80.295V24.618C80.295 23.5633 79.8517 23.0547 78.965 23.092C78.5077 23.092 78.125 23.232 77.817 23.512C77.5184 23.792 77.369 24.1373 77.369 24.548V29H75.451ZM84.8473 29V23.33H83.4473V21.608H84.8473V19.718H86.7513V21.608H88.3053V23.33H86.7513V29H84.8473ZM92.3054 29.14C91.6894 29.14 91.1341 28.972 90.6394 28.636C90.1447 28.3 89.7481 27.8427 89.4494 27.264C89.1601 26.6853 89.0154 26.0273 89.0154 25.29C89.0154 24.534 89.1601 23.8713 89.4494 23.302C89.7481 22.7233 90.1494 22.2707 90.6534 21.944C91.1667 21.6173 91.7454 21.454 92.3894 21.454C92.9121 21.454 93.3694 21.5613 93.7614 21.776C94.1534 21.9813 94.4661 22.252 94.6994 22.588V21.608H96.6034V29H94.6854V28.006C94.4241 28.3327 94.0834 28.6033 93.6634 28.818C93.2527 29.0327 92.8001 29.14 92.3054 29.14ZM92.8234 27.474C93.3927 27.474 93.8547 27.2733 94.2094 26.872C94.5641 26.4707 94.7414 25.9433 94.7414 25.29C94.7414 24.6367 94.5641 24.1093 94.2094 23.708C93.8547 23.3067 93.3927 23.106 92.8234 23.106C92.2634 23.106 91.8061 23.3067 91.4514 23.708C91.1061 24.1093 90.9334 24.6367 90.9334 25.29C90.9334 25.9433 91.1061 26.4707 91.4514 26.872C91.8061 27.2733 92.2634 27.474 92.8234 27.474ZM101.804 29.14C101.104 29.14 100.474 28.972 99.9135 28.636C99.3628 28.3 98.9242 27.8427 98.5975 27.264C98.2802 26.6853 98.1215 26.0273 98.1215 25.29C98.1215 24.562 98.2802 23.9087 98.5975 23.33C98.9242 22.7513 99.3628 22.294 99.9135 21.958C100.474 21.622 101.104 21.454 101.804 21.454C102.466 21.454 103.068 21.5753 103.61 21.818C104.16 22.0607 104.59 22.4013 104.898 22.84L103.848 24.1C103.652 23.8293 103.381 23.6007 103.036 23.414C102.69 23.218 102.34 23.12 101.986 23.12C101.594 23.12 101.244 23.218 100.936 23.414C100.637 23.6007 100.399 23.8573 100.222 24.184C100.054 24.5107 99.9695 24.8793 99.9695 25.29C99.9695 25.7007 100.058 26.0693 100.236 26.396C100.413 26.7227 100.656 26.984 100.964 27.18C101.272 27.3667 101.617 27.46 102 27.46C102.364 27.46 102.7 27.3807 103.008 27.222C103.316 27.054 103.596 26.8207 103.848 26.522L104.898 27.782C104.58 28.1927 104.142 28.524 103.582 28.776C103.022 29.0187 102.429 29.14 101.804 29.14ZM106.914 29V23.33H105.514V21.608H106.914V19.718H108.818V21.608H110.372V23.33H108.818V29H106.914ZM116.186 29V19.2H117.992L123.046 26.018C122.972 25.43 122.916 24.8187 122.878 24.184C122.85 23.54 122.841 22.798 122.85 21.958V19.2H124.824V29H122.99L117.964 22.294C118.02 22.91 118.062 23.4 118.09 23.764C118.118 24.1187 118.137 24.4173 118.146 24.66C118.156 24.8933 118.16 25.136 118.16 25.388V29H116.186ZM130.533 29.14C129.777 29.14 129.105 28.9767 128.517 28.65C127.929 28.314 127.467 27.8567 127.131 27.278C126.795 26.6993 126.627 26.0367 126.627 25.29C126.627 24.5527 126.795 23.8947 127.131 23.316C127.467 22.7373 127.929 22.2847 128.517 21.958C129.105 21.622 129.777 21.454 130.533 21.454C131.271 21.454 131.933 21.622 132.521 21.958C133.109 22.2847 133.571 22.7373 133.907 23.316C134.243 23.8947 134.411 24.5527 134.411 25.29C134.411 26.0367 134.243 26.6993 133.907 27.278C133.571 27.8567 133.109 28.314 132.521 28.65C131.933 28.9767 131.271 29.14 130.533 29.14ZM130.533 27.474C130.907 27.474 131.243 27.3807 131.541 27.194C131.84 26.998 132.069 26.7367 132.227 26.41C132.395 26.0833 132.479 25.71 132.479 25.29C132.479 24.87 132.395 24.4967 132.227 24.17C132.069 23.8433 131.84 23.5867 131.541 23.4C131.243 23.2133 130.907 23.12 130.533 23.12C130.151 23.12 129.81 23.2133 129.511 23.4C129.213 23.5867 128.979 23.8433 128.811 24.17C128.643 24.4967 128.559 24.87 128.559 25.29C128.559 25.71 128.643 26.0833 128.811 26.41C128.979 26.7367 129.213 26.998 129.511 27.194C129.81 27.3807 130.151 27.474 130.533 27.474ZM137.356 29L134.878 21.608L136.866 21.594L138.28 26.256L139.82 22.686H140.94L142.508 26.228L143.922 21.608H145.896L143.39 29H142.018L140.352 25.024L138.728 29H137.356Z" fill="white"/>
</svg>
