<svg width="118" height="46" viewBox="0 0 118 46" fill="none" xmlns="http://www.w3.org/2000/svg">
<rect width="118" height="46" rx="23" fill="#10B981"/>
<path d="M17.288 28V18.2H19.15L22.118 23.044L25.142 18.2H26.92V28H24.946V24.542C24.946 23.9727 24.9553 23.4453 24.974 22.96C24.9927 22.4653 25.0207 21.9893 25.058 21.532L22.538 25.438H21.614L19.15 21.56C19.1967 21.9893 19.2247 22.4467 19.234 22.932C19.2527 23.408 19.262 23.9447 19.262 24.542V28H17.288ZM32.633 28.14C31.877 28.14 31.205 27.9767 30.617 27.65C30.029 27.314 29.567 26.8567 29.231 26.278C28.895 25.6993 28.727 25.0367 28.727 24.29C28.727 23.5527 28.895 22.8947 29.231 22.316C29.567 21.7373 30.029 21.2847 30.617 20.958C31.205 20.622 31.877 20.454 32.633 20.454C33.3703 20.454 34.033 20.622 34.621 20.958C35.209 21.2847 35.671 21.7373 36.007 22.316C36.343 22.8947 36.511 23.5527 36.511 24.29C36.511 25.0367 36.343 25.6993 36.007 26.278C35.671 26.8567 35.209 27.314 34.621 27.65C34.033 27.9767 33.3703 28.14 32.633 28.14ZM32.633 26.474C33.0063 26.474 33.3423 26.3807 33.641 26.194C33.9397 25.998 34.1683 25.7367 34.327 25.41C34.495 25.0833 34.579 24.71 34.579 24.29C34.579 23.87 34.495 23.4967 34.327 23.17C34.1683 22.8433 33.9397 22.5867 33.641 22.4C33.3423 22.2133 33.0063 22.12 32.633 22.12C32.2503 22.12 31.9097 22.2133 31.611 22.4C31.3123 22.5867 31.079 22.8433 30.911 23.17C30.743 23.4967 30.659 23.87 30.659 24.29C30.659 24.71 30.743 25.0833 30.911 25.41C31.079 25.7367 31.3123 25.998 31.611 26.194C31.9097 26.3807 32.2503 26.474 32.633 26.474ZM38.0213 28V20.608H39.8693L39.8973 21.826C40.14 21.4247 40.4573 21.098 40.8493 20.846C41.2507 20.5847 41.6707 20.454 42.1093 20.454C42.2773 20.454 42.4313 20.468 42.5713 20.496C42.7207 20.5147 42.8467 20.5427 42.9493 20.58L42.4313 22.68C42.3287 22.624 42.198 22.5773 42.0393 22.54C41.8807 22.5027 41.722 22.484 41.5633 22.484C41.106 22.484 40.7187 22.6427 40.4013 22.96C40.0933 23.268 39.9393 23.66 39.9393 24.136V28H38.0213ZM47.2635 28.14C46.4702 28.14 45.7749 27.9767 45.1775 27.65C44.5802 27.3233 44.1135 26.8753 43.7775 26.306C43.4509 25.7367 43.2875 25.0833 43.2875 24.346C43.2875 23.5807 43.4462 22.9087 43.7635 22.33C44.0902 21.742 44.5335 21.28 45.0935 20.944C45.6629 20.608 46.3162 20.44 47.0535 20.44C47.7162 20.44 48.3089 20.6033 48.8315 20.93C49.3635 21.2473 49.7742 21.6813 50.0635 22.232C50.3622 22.7827 50.5022 23.4127 50.4835 24.122L50.4695 24.724H45.1495C45.2522 25.256 45.5042 25.676 45.9055 25.984C46.3162 26.292 46.8342 26.446 47.4595 26.446C47.7955 26.446 48.0989 26.3947 48.3695 26.292C48.6495 26.1893 48.9482 26.0073 49.2655 25.746L50.1895 27.034C49.7882 27.3887 49.3262 27.664 48.8035 27.86C48.2902 28.0467 47.7769 28.14 47.2635 28.14ZM47.0675 22.092C46.0129 22.092 45.3782 22.568 45.1635 23.52H48.6635V23.464C48.6355 23.0627 48.4675 22.736 48.1595 22.484C47.8609 22.2227 47.4969 22.092 47.0675 22.092ZM55.3509 28L59.1869 18.2H61.0069L64.8289 28H62.7569L61.9589 25.886H58.1509L57.3529 28H55.3509ZM59.3689 22.666L58.7809 24.234H61.3429L60.7409 22.638C60.6849 22.498 60.6196 22.316 60.5449 22.092C60.4703 21.8587 60.3863 21.6113 60.2929 21.35C60.2089 21.0887 60.1343 20.8413 60.0689 20.608C59.9569 20.9533 59.8403 21.308 59.7189 21.672C59.5976 22.036 59.4809 22.3673 59.3689 22.666ZM65.9667 28V20.608H67.8147L67.8427 21.826C68.0853 21.4247 68.4027 21.098 68.7947 20.846C69.196 20.5847 69.616 20.454 70.0547 20.454C70.2227 20.454 70.3767 20.468 70.5167 20.496C70.666 20.5147 70.792 20.5427 70.8947 20.58L70.3767 22.68C70.274 22.624 70.1433 22.5773 69.9847 22.54C69.826 22.5027 69.6673 22.484 69.5087 22.484C69.0513 22.484 68.664 22.6427 68.3467 22.96C68.0387 23.268 67.8847 23.66 67.8847 24.136V28H65.9667ZM73.0387 28V22.33H71.6387V20.608H73.0387V18.718H74.9427V20.608H76.4967V22.33H74.9427V28H73.0387ZM78.9412 19.068C78.5678 19.068 78.2738 18.9747 78.0592 18.788C77.8538 18.6013 77.7512 18.3447 77.7512 18.018C77.7512 17.7007 77.8538 17.444 78.0592 17.248C78.2738 17.052 78.5678 16.954 78.9412 16.954C79.3145 16.954 79.6038 17.0473 79.8092 17.234C80.0145 17.4207 80.1172 17.682 80.1172 18.018C80.1172 18.326 80.0098 18.578 79.7952 18.774C79.5898 18.97 79.3052 19.068 78.9412 19.068ZM77.9892 28V20.608H79.9072V28H77.9892ZM82.0728 28V17.64H83.9768V23.52L86.8608 20.608H89.3808L85.9508 23.828L89.3808 28H87.0708L84.6768 25.018L83.9768 25.676V28H82.0728ZM93.6659 28.14C92.8725 28.14 92.1772 27.9767 91.5799 27.65C90.9825 27.3233 90.5159 26.8753 90.1799 26.306C89.8532 25.7367 89.6899 25.0833 89.6899 24.346C89.6899 23.5807 89.8485 22.9087 90.1659 22.33C90.4925 21.742 90.9359 21.28 91.4959 20.944C92.0652 20.608 92.7185 20.44 93.4559 20.44C94.1185 20.44 94.7112 20.6033 95.2339 20.93C95.7659 21.2473 96.1765 21.6813 96.4659 22.232C96.7645 22.7827 96.9045 23.4127 96.8859 24.122L96.8719 24.724H91.5519C91.6545 25.256 91.9065 25.676 92.3079 25.984C92.7185 26.292 93.2365 26.446 93.8619 26.446C94.1979 26.446 94.5012 26.3947 94.7719 26.292C95.0519 26.1893 95.3505 26.0073 95.6679 25.746L96.5919 27.034C96.1905 27.3887 95.7285 27.664 95.2059 27.86C94.6925 28.0467 94.1792 28.14 93.6659 28.14ZM93.4699 22.092C92.4152 22.092 91.7805 22.568 91.5659 23.52H95.0659V23.464C95.0379 23.0627 94.8699 22.736 94.5619 22.484C94.2632 22.2227 93.8992 22.092 93.4699 22.092ZM98.397 28V17.64H100.301V28H98.397Z" fill="white"/>
</svg>
