<svg width="115" height="36" viewBox="0 0 115 36" fill="none" xmlns="http://www.w3.org/2000/svg">
<path d="M0 4C0 1.79086 1.79086 0 4 0H28C30.2091 0 32 1.79086 32 4V8C32 21.2548 21.2548 32 8 32H4C1.79086 32 0 30.2091 0 28V4Z" fill="#F59E0B"/>
<path d="M4 8C4 5.79086 5.79086 4 8 4H32C34.2091 4 36 5.79086 36 8V12C36 25.2548 25.2548 36 12 36H8C5.79086 36 4 34.2091 4 32V8Z" fill="#4BE4C9"/>
<path d="M108.324 26V17.488H110.883L110.931 18.752C111.219 18.3253 111.582 17.9787 112.02 17.712C112.468 17.4453 112.942 17.312 113.443 17.312C113.625 17.312 113.801 17.328 113.971 17.36C114.142 17.392 114.297 17.4293 114.436 17.472L113.7 20.464C113.582 20.4 113.422 20.3413 113.219 20.288C113.017 20.224 112.798 20.192 112.563 20.192C112.115 20.192 111.747 20.3413 111.459 20.64C111.182 20.9387 111.043 21.328 111.043 21.808V26H108.324Z" fill="#1B1C57"/>
<path d="M103.013 26.16C102.063 26.16 101.237 25.9733 100.533 25.6C99.8392 25.216 99.3005 24.6933 98.9165 24.032C98.5325 23.3707 98.3405 22.6187 98.3405 21.776C98.3405 20.9013 98.5272 20.1333 98.9005 19.472C99.2738 18.8 99.7858 18.272 100.437 17.888C101.087 17.504 101.828 17.312 102.66 17.312C103.46 17.312 104.17 17.4987 104.789 17.872C105.407 18.2453 105.887 18.7573 106.229 19.408C106.57 20.0587 106.735 20.8 106.725 21.632L106.708 22.32H100.965C101.103 22.7787 101.37 23.1413 101.764 23.408C102.17 23.6747 102.687 23.808 103.317 23.808C103.669 23.808 103.978 23.76 104.244 23.664C104.522 23.5573 104.815 23.3813 105.125 23.136L106.389 24.928C105.855 25.3653 105.306 25.68 104.741 25.872C104.175 26.064 103.599 26.16 103.013 26.16ZM102.708 19.552C101.738 19.552 101.146 19.9893 100.932 20.864H104.229V20.848C104.207 20.4747 104.052 20.1653 103.764 19.92C103.487 19.6747 103.135 19.552 102.708 19.552Z" fill="#1B1C57"/>
<path d="M93.2448 25.9998V19.8398H91.7728V17.4878H93.2448V15.3438H95.9648V17.4878H97.5488V19.8398H95.9648V25.9998H93.2448Z" fill="#1B1C57"/>
<path d="M82.3391 26V17.488H84.8831L84.9471 18.48C85.2458 18.128 85.6191 17.8453 86.0671 17.632C86.5258 17.4187 87.0058 17.312 87.5071 17.312C88.4671 17.312 89.1978 17.6107 89.6991 18.208C90.2111 18.7947 90.4671 19.648 90.4671 20.768V26H87.7471V20.992C87.7471 20.032 87.3365 19.5627 86.5151 19.584C86.0885 19.584 85.7365 19.712 85.4591 19.968C85.1818 20.224 85.0431 20.5387 85.0431 20.912V26H82.3391Z" fill="#1B1C57"/>
<path d="M74.8441 26.1758C73.9055 26.1758 73.1695 25.8771 72.6361 25.2798C72.1135 24.6718 71.8521 23.8238 71.8521 22.7358V17.4878H74.5721V22.4158C74.5721 22.8958 74.6841 23.2691 74.9081 23.5358C75.1428 23.8025 75.4735 23.9358 75.9001 23.9358C76.3161 23.9358 76.6575 23.8078 76.9241 23.5518C77.1908 23.2958 77.3241 22.9705 77.3241 22.5758V17.4878H80.0441V25.9998H77.5001L77.4201 24.9438C77.1428 25.3171 76.7748 25.6158 76.3161 25.8398C75.8575 26.0638 75.3668 26.1758 74.8441 26.1758Z" fill="#1B1C57"/>
<path d="M65.6836 26.16C64.7983 26.16 64.0036 25.968 63.2996 25.584C62.6063 25.2 62.057 24.6773 61.6516 24.016C61.2463 23.3547 61.0436 22.5973 61.0436 21.744C61.0436 20.8907 61.2463 20.1333 61.6516 19.472C62.057 18.8 62.6063 18.272 63.2996 17.888C64.0036 17.504 64.7983 17.312 65.6836 17.312C66.569 17.312 67.3583 17.504 68.0516 17.888C68.7556 18.272 69.305 18.8 69.6996 19.472C70.105 20.1333 70.3076 20.8907 70.3076 21.744C70.3076 22.5973 70.105 23.3547 69.6996 24.016C69.305 24.6773 68.7556 25.2 68.0516 25.584C67.3583 25.968 66.569 26.16 65.6836 26.16ZM65.6836 23.84C66.2276 23.84 66.6756 23.6427 67.0276 23.248C67.3796 22.8533 67.5556 22.352 67.5556 21.744C67.5556 21.1253 67.3796 20.6187 67.0276 20.224C66.6756 19.8187 66.2276 19.616 65.6836 19.616C65.1396 19.616 64.6863 19.8187 64.3236 20.224C63.9716 20.6187 63.7956 21.1253 63.7956 21.744C63.7956 22.352 63.9716 22.8533 64.3236 23.248C64.6863 23.6427 65.1396 23.84 65.6836 23.84Z" fill="#1B1C57"/>
<path d="M49.376 25.9998V14.7998H52.256V19.1358H56.256V14.7998H59.136V25.9998H56.256V21.6958H52.256V25.9998H49.376Z" fill="#1B1C57"/>
</svg>
