<svg width="60" height="52" viewBox="0 0 60 52" fill="none" xmlns="http://www.w3.org/2000/svg">
<rect width="60" height="52" rx="26" transform="matrix(-1 0 0 1 60 0)" fill="#E0E3EB"/>
<path d="M26.4922 34.1645C26.2219 34.165 25.96 34.0703 25.7518 33.8967C25.6347 33.799 25.5378 33.679 25.4669 33.5436C25.3959 33.4081 25.3522 33.2599 25.3382 33.1075C25.3242 32.955 25.3403 32.8012 25.3855 32.655C25.4306 32.5088 25.504 32.373 25.6014 32.2554L30.7842 26.0159L25.7865 19.7647C25.6904 19.6457 25.6187 19.5087 25.5754 19.3616C25.5321 19.2145 25.5181 19.0603 25.5342 18.9078C25.5503 18.7552 25.5962 18.6074 25.6693 18.4728C25.7424 18.3382 25.8412 18.2194 25.9601 18.1234C26.0798 18.0174 26.2199 17.9375 26.3718 17.8886C26.5236 17.8397 26.6839 17.823 26.8425 17.8393C27.0011 17.8557 27.1546 17.9049 27.2934 17.9839C27.4322 18.0628 27.5533 18.1697 27.6491 18.298L33.2368 25.2825C33.407 25.4908 33.5 25.7521 33.5 26.0217C33.5 26.2913 33.407 26.5526 33.2368 26.7609L27.4524 33.7454C27.3364 33.8863 27.189 33.9976 27.0221 34.0705C26.8553 34.1433 26.6737 34.1755 26.4922 34.1645Z" fill="#3C4563"/>
</svg>
