<svg width="129" height="46" viewBox="0 0 129 46" fill="none" xmlns="http://www.w3.org/2000/svg">
<rect width="129" height="46" rx="23" fill="#10B981"/>
<path d="M20.452 28.14C19.5467 28.14 18.7673 27.9767 18.114 27.65C17.47 27.314 16.9193 26.8333 16.462 26.208L17.736 24.766C18.1933 25.4007 18.646 25.8347 19.094 26.068C19.542 26.292 20.0367 26.404 20.578 26.404C21.0167 26.404 21.3853 26.3107 21.684 26.124C21.992 25.9373 22.146 25.6853 22.146 25.368C22.146 24.9853 21.95 24.6867 21.558 24.472C21.1753 24.248 20.6807 24.0753 20.074 23.954C19.0193 23.73 18.2353 23.3707 17.722 22.876C17.2087 22.3813 16.952 21.7233 16.952 20.902C16.952 20.3327 17.1153 19.8333 17.442 19.404C17.7687 18.9653 18.198 18.6247 18.73 18.382C19.2713 18.1393 19.8687 18.018 20.522 18.018C21.39 18.018 22.1087 18.1673 22.678 18.466C23.2567 18.7553 23.714 19.1707 24.05 19.712L22.748 20.986C22.1693 20.1647 21.432 19.754 20.536 19.754C20.0693 19.754 19.6913 19.852 19.402 20.048C19.122 20.2347 18.982 20.4913 18.982 20.818C18.982 21.1633 19.1453 21.434 19.472 21.63C19.808 21.826 20.256 21.98 20.816 22.092C21.8427 22.3067 22.6547 22.652 23.252 23.128C23.8587 23.5947 24.162 24.2247 24.162 25.018C24.162 25.6713 24.0033 26.2313 23.686 26.698C23.378 27.1647 22.944 27.524 22.384 27.776C21.8333 28.0187 21.1893 28.14 20.452 28.14ZM28.3744 28.14C27.5624 28.14 26.923 27.8787 26.4564 27.356C25.999 26.824 25.7704 26.096 25.7704 25.172V20.608H27.6744V24.822C27.6744 25.354 27.8004 25.774 28.0524 26.082C28.3137 26.3807 28.6684 26.53 29.1164 26.53C29.5644 26.53 29.933 26.39 30.2224 26.11C30.521 25.83 30.6704 25.4707 30.6704 25.032V20.608H32.5744V28H30.7544L30.7124 26.964C30.4604 27.3187 30.1244 27.6033 29.7044 27.818C29.2937 28.0327 28.8504 28.14 28.3744 28.14ZM38.79 28.14C38.3234 28.14 37.8754 28.0467 37.446 27.86C37.026 27.664 36.69 27.4213 36.438 27.132L36.396 27.972H34.576V17.64H36.494V21.476C36.7367 21.1867 37.0587 20.944 37.46 20.748C37.8707 20.552 38.3 20.454 38.748 20.454C39.392 20.454 39.966 20.6173 40.47 20.944C40.9834 21.2707 41.3847 21.7233 41.674 22.302C41.9727 22.8807 42.122 23.5433 42.122 24.29C42.122 25.0367 41.9774 25.6993 41.688 26.278C41.3987 26.8567 41.002 27.314 40.498 27.65C40.0034 27.9767 39.434 28.14 38.79 28.14ZM38.356 26.502C38.916 26.502 39.3734 26.2967 39.728 25.886C40.0827 25.4753 40.26 24.9433 40.26 24.29C40.26 23.646 40.0827 23.1233 39.728 22.722C39.3827 22.3113 38.9254 22.106 38.356 22.106C37.7774 22.106 37.3107 22.3113 36.956 22.722C36.6014 23.1233 36.424 23.646 36.424 24.29C36.424 24.9433 36.6014 25.4753 36.956 25.886C37.3107 26.2967 37.7774 26.502 38.356 26.502ZM46.1188 28.14C45.4375 28.14 44.8308 28.028 44.2988 27.804C43.7668 27.58 43.3375 27.2627 43.0108 26.852L44.2148 25.83C44.4948 26.138 44.8121 26.362 45.1668 26.502C45.5215 26.6327 45.8808 26.698 46.2448 26.698C46.5341 26.698 46.7675 26.6327 46.9448 26.502C47.1221 26.3713 47.2108 26.1893 47.2108 25.956C47.2108 25.7507 47.1268 25.5873 46.9588 25.466C46.7908 25.354 46.3895 25.214 45.7548 25.046C44.8121 24.8033 44.1448 24.472 43.7528 24.052C43.4075 23.6787 43.2348 23.2167 43.2348 22.666C43.2348 22.2273 43.3655 21.8447 43.6268 21.518C43.8881 21.182 44.2335 20.9207 44.6628 20.734C45.0921 20.5473 45.5588 20.454 46.0628 20.454C46.6415 20.454 47.1875 20.5567 47.7008 20.762C48.2141 20.9673 48.6435 21.2473 48.9888 21.602L47.9528 22.736C47.6915 22.4933 47.3881 22.2927 47.0428 22.134C46.7068 21.966 46.3941 21.882 46.1048 21.882C45.4328 21.882 45.0968 22.1153 45.0968 22.582C45.1061 22.806 45.2088 22.9833 45.4048 23.114C45.5915 23.2447 46.0161 23.3987 46.6788 23.576C47.5655 23.8093 48.1908 24.1173 48.5548 24.5C48.8721 24.8267 49.0308 25.2607 49.0308 25.802C49.0308 26.25 48.9001 26.6513 48.6388 27.006C48.3868 27.3607 48.0415 27.6407 47.6028 27.846C47.1641 28.042 46.6695 28.14 46.1188 28.14ZM50.4628 28V20.608H52.3108L52.3388 21.826C52.5814 21.4247 52.8988 21.098 53.2908 20.846C53.6921 20.5847 54.1121 20.454 54.5508 20.454C54.7188 20.454 54.8728 20.468 55.0128 20.496C55.1621 20.5147 55.2881 20.5427 55.3908 20.58L54.8728 22.68C54.7701 22.624 54.6394 22.5773 54.4808 22.54C54.3221 22.5027 54.1634 22.484 54.0048 22.484C53.5474 22.484 53.1601 22.6427 52.8428 22.96C52.5348 23.268 52.3808 23.66 52.3808 24.136V28H50.4628ZM57.6814 19.068C57.3081 19.068 57.0141 18.9747 56.7994 18.788C56.5941 18.6013 56.4914 18.3447 56.4914 18.018C56.4914 17.7007 56.5941 17.444 56.7994 17.248C57.0141 17.052 57.3081 16.954 57.6814 16.954C58.0547 16.954 58.3441 17.0473 58.5494 17.234C58.7547 17.4207 58.8574 17.682 58.8574 18.018C58.8574 18.326 58.7501 18.578 58.5354 18.774C58.3301 18.97 58.0454 19.068 57.6814 19.068ZM56.7294 28V20.608H58.6474V28H56.7294ZM64.999 28.14C64.5323 28.14 64.0843 28.0467 63.655 27.86C63.235 27.664 62.899 27.4213 62.647 27.132L62.605 27.972H60.785V17.64H62.703V21.476C62.9457 21.1867 63.2677 20.944 63.669 20.748C64.0797 20.552 64.509 20.454 64.957 20.454C65.601 20.454 66.175 20.6173 66.679 20.944C67.1923 21.2707 67.5937 21.7233 67.883 22.302C68.1817 22.8807 68.331 23.5433 68.331 24.29C68.331 25.0367 68.1863 25.6993 67.897 26.278C67.6077 26.8567 67.211 27.314 66.707 27.65C66.2123 27.9767 65.643 28.14 64.999 28.14ZM64.565 26.502C65.125 26.502 65.5823 26.2967 65.937 25.886C66.2917 25.4753 66.469 24.9433 66.469 24.29C66.469 23.646 66.2917 23.1233 65.937 22.722C65.5917 22.3113 65.1343 22.106 64.565 22.106C63.9863 22.106 63.5197 22.3113 63.165 22.722C62.8103 23.1233 62.633 23.646 62.633 24.29C62.633 24.9433 62.8103 25.4753 63.165 25.886C63.5197 26.2967 63.9863 26.502 64.565 26.502ZM73.3358 28.14C72.5425 28.14 71.8471 27.9767 71.2498 27.65C70.6525 27.3233 70.1858 26.8753 69.8498 26.306C69.5231 25.7367 69.3598 25.0833 69.3598 24.346C69.3598 23.5807 69.5185 22.9087 69.8358 22.33C70.1625 21.742 70.6058 21.28 71.1658 20.944C71.7351 20.608 72.3885 20.44 73.1258 20.44C73.7885 20.44 74.3811 20.6033 74.9038 20.93C75.4358 21.2473 75.8465 21.6813 76.1358 22.232C76.4345 22.7827 76.5745 23.4127 76.5558 24.122L76.5418 24.724H71.2218C71.3245 25.256 71.5765 25.676 71.9778 25.984C72.3885 26.292 72.9065 26.446 73.5318 26.446C73.8678 26.446 74.1711 26.3947 74.4418 26.292C74.7218 26.1893 75.0205 26.0073 75.3378 25.746L76.2618 27.034C75.8605 27.3887 75.3985 27.664 74.8758 27.86C74.3625 28.0467 73.8491 28.14 73.3358 28.14ZM73.1398 22.092C72.0851 22.092 71.4505 22.568 71.2358 23.52H74.7358V23.464C74.7078 23.0627 74.5398 22.736 74.2318 22.484C73.9331 22.2227 73.5691 22.092 73.1398 22.092ZM82.5712 28V18.2H84.3772L89.4312 25.018C89.3565 24.43 89.3005 23.8187 89.2632 23.184C89.2352 22.54 89.2259 21.798 89.2352 20.958V18.2H91.2092V28H89.3752L84.3492 21.294C84.4052 21.91 84.4472 22.4 84.4752 22.764C84.5032 23.1187 84.5219 23.4173 84.5312 23.66C84.5405 23.8933 84.5452 24.136 84.5452 24.388V28H82.5712ZM96.9181 28.14C96.1621 28.14 95.4901 27.9767 94.9021 27.65C94.3141 27.314 93.8521 26.8567 93.5161 26.278C93.1801 25.6993 93.0121 25.0367 93.0121 24.29C93.0121 23.5527 93.1801 22.8947 93.5161 22.316C93.8521 21.7373 94.3141 21.2847 94.9021 20.958C95.4901 20.622 96.1621 20.454 96.9181 20.454C97.6555 20.454 98.3181 20.622 98.9061 20.958C99.4941 21.2847 99.9561 21.7373 100.292 22.316C100.628 22.8947 100.796 23.5527 100.796 24.29C100.796 25.0367 100.628 25.6993 100.292 26.278C99.9561 26.8567 99.4941 27.314 98.9061 27.65C98.3181 27.9767 97.6555 28.14 96.9181 28.14ZM96.9181 26.474C97.2915 26.474 97.6275 26.3807 97.9261 26.194C98.2248 25.998 98.4535 25.7367 98.6121 25.41C98.7801 25.0833 98.8641 24.71 98.8641 24.29C98.8641 23.87 98.7801 23.4967 98.6121 23.17C98.4535 22.8433 98.2248 22.5867 97.9261 22.4C97.6275 22.2133 97.2915 22.12 96.9181 22.12C96.5355 22.12 96.1948 22.2133 95.8961 22.4C95.5975 22.5867 95.3641 22.8433 95.1961 23.17C95.0281 23.4967 94.9441 23.87 94.9441 24.29C94.9441 24.71 95.0281 25.0833 95.1961 25.41C95.3641 25.7367 95.5975 25.998 95.8961 26.194C96.1948 26.3807 96.5355 26.474 96.9181 26.474ZM103.741 28L101.263 20.608L103.251 20.594L104.665 25.256L106.205 21.686H107.325L108.893 25.228L110.307 20.608H112.281L109.775 28H108.403L106.737 24.024L105.113 28H103.741Z" fill="white"/>
</svg>
